<svg width="113" height="114" xmlns="http://www.w3.org/2000/svg" xmlns:xlink="http://www.w3.org/1999/xlink" overflow="hidden"><defs><clipPath id="clip0"><rect x="844" y="287" width="113" height="114"/></clipPath></defs><g clip-path="url(#clip0)" transform="translate(-844 -287)"><path d="M47.0419 72.1901C47.0419 77.0575 43.5107 78.5972 39.1715 78.5972L27.7952 78.5972 27.7952 65.2575 39.3974 65.2575C44.0898 65.2773 47.0419 67.2209 47.0419 72.1901ZM45.0983 51.4319C45.0983 46.9684 41.6433 45.9091 37.8098 45.9091L27.8206 45.9091 27.8206 57.2091 38.5923 57.2091C42.4004 57.2062 45.0983 55.5423 45.0983 51.4291ZM78.4672 57.2825C74.3222 57.0204 70.7495 60.1681 70.4874 64.3131 70.4777 64.4667 70.4727 64.6205 70.4725 64.7744L86.1625 64.7744C86.3394 60.8077 83.2672 57.4485 79.3004 57.2716 79.0236 57.2592 78.7464 57.2629 78.47 57.2825ZM113 18.4642 113 107.248C112.998 113.935 107.578 119.355 100.892 119.356L12.1079 119.356C5.42156 119.355 0.00155887 113.935-6.35815e-07 107.248L0 18.4642C0.00155951 11.7778 5.42156 6.35781 12.1079 6.35625L100.892 6.35625C107.578 6.35781 112.998 11.7778 113 18.4642ZM68.5317 44.9486 88.1541 44.9486 88.1541 40.18 68.5317 40.18ZM57.6865 72.7692C58.1676 66.8954 54.4937 61.4793 48.8584 59.7544 53.1976 57.6865 55.4661 55.2909 55.4661 50.4319 55.4661 40.7958 48.2764 38.4511 39.9794 38.4511L17.1506 38.4511 17.1506 86.8688 40.6348 86.8688C49.4375 86.8179 57.6865 82.6058 57.6865 72.7692ZM95.8494 69.0374C95.8494 58.6696 89.77 50.0194 78.7977 50.0194 69.0765 49.824 61.0374 57.5461 60.8419 67.2673 60.8331 67.7059 60.8407 68.1446 60.8646 68.5825 60.8646 79.504 67.752 86.9959 78.7977 86.9959 86.421 87.6044 93.3663 82.6105 95.2166 75.1902L86.7275 75.1902C85.3469 78.1187 82.3333 79.9224 79.1 79.7554 73.45 79.7554 70.4979 76.4501 70.4979 70.851L95.7675 70.851C95.7986 70.2719 95.8494 69.6419 95.8494 69.0374Z" fill="#14191C" transform="matrix(1 0 0 1.00885 844 280.587)"/></g></svg>