<svg width="116" height="114" xmlns="http://www.w3.org/2000/svg" xmlns:xlink="http://www.w3.org/1999/xlink" overflow="hidden"><defs><clipPath id="clip0"><rect x="306" y="287" width="116" height="114"/></clipPath></defs><g clip-path="url(#clip0)" transform="translate(-306 -287)"><path d="M38.7996 92.6586C38.7996 93.1252 38.2623 93.5069 37.5837 93.5069 36.8118 93.5776 36.2746 93.2015 36.2746 92.6586 36.2746 92.1921 36.8118 91.8104 37.4904 91.8104 38.1916 91.7482 38.7996 92.1214 38.7996 92.6586ZM31.5271 91.6124C31.3631 92.079 31.8325 92.619 32.5337 92.7576 33.064 93.018 33.7052 92.8117 33.9843 92.291 34.1256 91.8245 33.6789 91.2844 32.9776 91.0752 32.4278 90.8779 31.8158 91.1046 31.5271 91.6124ZM41.8646 91.2137C41.186 91.3777 40.7195 91.8217 40.7902 92.3589 40.8608 92.8254 41.4688 93.1308 42.17 92.9668 42.8712 92.8028 43.3152 92.3589 43.2445 91.8924 43.1738 91.4258 42.5404 91.1402 41.8618 91.2109ZM57.2521 1.58908C26.2876 0.936094 0.656545 25.5084 0.00355909 56.473-0.0117744 57.2001-0.0129617 57.9274-2.28661e-06 58.6546-0.201746 83.8901 15.7661 106.424 39.6422 114.598 42.6365 115.135 43.6884 113.288 43.6884 111.77 43.6884 110.319 43.6177 102.32 43.6177 97.4117 43.6177 97.4117 27.2462 100.921 23.8079 90.4418 23.8079 90.4418 21.1415 83.6359 17.3046 81.8829 17.3046 81.8829 11.9492 78.207 17.6778 78.2806 21.4578 78.7892 24.7904 81.0165 26.7062 84.3145 31.8268 93.3429 40.4113 90.7472 43.7562 89.2034 44.0592 86.2215 45.3826 83.4358 47.5027 81.3173 34.4282 79.8668 21.2377 77.9724 21.2377 55.4736 20.9742 50.2954 22.9911 45.2615 26.7571 41.6978 24.9836 36.5124 25.2002 30.8529 27.365 25.8183 32.2538 24.2971 43.5018 32.1322 43.5018 32.1322 53.1142 29.4815 63.2647 29.4815 72.8771 32.1322 72.8771 32.1322 84.1251 24.2745 89.0139 25.8183 91.1797 30.8527 91.3964 36.5125 89.6218 41.6978 93.5274 45.2034 95.7274 50.2259 95.6558 55.4736 95.6558 78.043 81.88 79.8442 68.7942 81.3173 71.6463 84.181 73.1029 88.1491 72.781 92.1779 72.781 100.058 72.7103 109.811 72.7103 111.73 72.7103 113.252 73.7848 115.098 76.7565 114.558 100.567 106.393 116.411 83.8231 116 58.6546 116 26.217 89.6897 1.58908 57.2521 1.58908ZM22.7335 82.2533C22.4281 82.4879 22.4988 83.0252 22.8975 83.4691 23.2707 83.8423 23.8107 84.0063 24.1133 83.7038 24.4187 83.4691 24.348 82.9319 23.9493 82.4879 23.5732 82.1119 23.036 81.9479 22.7335 82.2533ZM20.2085 80.3588C20.0445 80.6642 20.2791 81.0374 20.7457 81.2721 21.0488 81.5081 21.4859 81.4536 21.7218 81.1504 21.7325 81.1367 21.7427 81.1226 21.7523 81.1081 21.9163 80.8027 21.6816 80.4295 21.2151 80.1948 20.7457 80.0534 20.3583 80.1241 20.2056 80.3588ZM27.7863 88.6859C27.413 88.9913 27.5516 89.6925 28.0917 90.1365 28.6289 90.6737 29.3075 90.7444 29.6129 90.3711 29.9182 90.0658 29.7769 89.3645 29.3075 88.9206 28.7901 88.3805 28.0888 88.3099 27.7834 88.6831ZM25.1199 85.2476C24.7467 85.4823 24.7467 86.0959 25.1199 86.6275 25.4931 87.159 26.1265 87.3994 26.4291 87.1647 26.8087 86.7557 26.8087 86.1231 26.4291 85.7142 26.1011 85.1769 25.4931 84.9423 25.1171 85.2448Z" fill="#14191C" transform="matrix(1 0 0 1.00733 306 285.431)"/></g></svg>