<svg width="234" height="233" xmlns="http://www.w3.org/2000/svg" xmlns:xlink="http://www.w3.org/1999/xlink" overflow="hidden"><defs><clipPath id="clip0"><rect x="937" y="243" width="234" height="233"/></clipPath><clipPath id="clip1"><rect x="974" y="243" width="162" height="233"/></clipPath><clipPath id="clip2"><rect x="974" y="243" width="162" height="233"/></clipPath></defs><g clip-path="url(#clip0)" transform="translate(-937 -243)"><g clip-path="url(#clip1)"><g clip-path="url(#clip2)"><path d="M43.6982 206.688C43.7023 209.552 44.5504 212.351 46.1366 214.735L53.9105 226.422C56.6079 230.479 61.1569 232.918 66.0293 232.918L94.1019 232.918C98.9742 232.918 103.523 230.479 106.221 226.422L113.996 214.735C115.582 212.351 116.431 209.552 116.434 206.688L116.452 189.242 43.6753 189.242 43.6982 206.688ZM0 80.0646C-0.0265068 99.4479 7.01925 118.175 19.8159 132.734 27.3314 141.309 39.086 159.223 43.5666 174.337 43.5845 174.456 43.5985 174.574 43.6164 174.692L116.511 174.692C116.529 174.574 116.543 174.46 116.561 174.337 121.041 159.225 132.796 141.314 140.311 132.734 169.424 99.484 166.071 48.9288 132.821 19.8158 118.155 6.97489 99.3068-0.0713207 79.8142-3.84654e-07 33.4082 0.14167 0 37.7441 0 80.0646ZM80.0636 43.6713C59.9741 43.695 43.6944 59.9751 43.6713 80.0646 43.8125 84.0844 40.6683 87.4576 36.6484 87.5988 32.6286 87.74 29.2554 84.5958 29.1142 80.5759 29.1082 80.4055 29.1082 80.235 29.1142 80.0646 29.1444 51.9384 51.9374 29.145 80.0636 29.1142 84.0834 29.2554 87.2276 32.6286 87.0864 36.6484 86.9522 40.4701 83.8852 43.5371 80.0636 43.6713Z" fill="#9F5F7F" transform="matrix(1 0 0 1.00035 974.692 243)"/></g></g></g></svg>