<svg width="113" height="114" xmlns="http://www.w3.org/2000/svg" xmlns:xlink="http://www.w3.org/1999/xlink" overflow="hidden"><defs><clipPath id="clip0"><rect x="443" y="287" width="113" height="114"/></clipPath></defs><g clip-path="url(#clip0)" transform="translate(-443 -287)"><path d="M56.4873 33.8415C40.491 33.8478 27.5285 46.8204 27.5347 62.8167 27.541 78.813 40.5136 91.7755 56.5099 91.7692 72.5007 91.763 85.4609 78.799 85.4624 62.8082 85.489 46.8369 72.5632 33.8681 56.5919 33.8415 56.557 33.8415 56.5222 33.8415 56.4873 33.8415ZM56.4873 81.6383C46.0877 81.6383 37.6573 73.2078 37.6573 62.8082 37.6573 52.4087 46.0877 43.9782 56.4873 43.9782 66.8868 43.9782 75.3173 52.4087 75.3173 62.8082 75.2971 73.1994 66.8784 81.6181 56.4873 81.6383ZM93.4046 32.6581C93.4046 36.3893 90.3798 39.414 86.6487 39.414 82.9175 39.414 79.8928 36.3893 79.8928 32.6581 79.8928 28.927 82.9175 25.9022 86.6487 25.9022 90.372 25.8944 93.3967 28.9065 93.4046 32.6299 93.4046 32.6393 93.4046 32.6487 93.4046 32.6581ZM112.588 39.5157C112.158 30.4777 110.091 22.448 103.462 15.8447 96.8333 9.24132 88.8404 7.17389 79.7911 6.71916 70.4707 6.19101 42.5095 6.19101 33.1891 6.71916 24.1511 7.14847 16.1469 9.2159 9.51811 15.8193 2.88932 22.4226 0.847309 30.4382 0.381289 39.4903-0.146867 48.8107-0.146867 76.7719 0.381289 86.0923 0.810593 95.1302 2.87803 103.16 9.50681 109.763 16.1356 116.367 24.1285 118.434 33.1778 118.889 42.4982 119.417 70.4594 119.417 79.7798 118.889 88.8178 118.459 96.8475 116.392 103.451 109.763 110.054 103.134 112.122 95.1415 112.576 86.0923 113.104 76.7719 113.104 48.8333 112.576 39.5072ZM100.547 96.1075C98.6096 101.016 94.7236 104.902 89.8148 106.84 82.3782 109.789 64.7316 109.1 56.5127 109.1 48.2938 109.1 30.6218 109.755 23.2106 106.84 18.3018 104.902 14.4159 101.016 12.478 96.1075 9.52941 88.6709 10.2186 71.0243 10.2186 62.8054 10.2186 54.5865 9.5633 36.9144 12.478 29.5033 14.4159 24.5945 18.3018 20.7085 23.2106 18.7707 30.6472 15.8221 48.2938 16.5112 56.5127 16.5112 64.7316 16.5112 82.4037 15.856 89.8148 18.7707 94.7236 20.7085 98.6096 24.5945 100.547 29.5033 103.496 36.9399 102.807 54.5865 102.807 62.8054 102.807 71.0243 103.488 88.685 100.547 96.1075Z" fill="#14191C" transform="matrix(1 0 0 1.00885 443.014 280.636)"/></g></svg>