<svg width="114" height="114" xmlns="http://www.w3.org/2000/svg" xmlns:xlink="http://www.w3.org/1999/xlink" overflow="hidden"><defs><clipPath id="clip0"><rect x="710" y="287" width="114" height="114"/></clipPath></defs><g clip-path="url(#clip0)" transform="translate(-710 -287)"><path d="M815.858 287 718.117 287C713.608 287.033 709.976 290.71 710 295.219L710 392.781C709.976 397.29 713.608 400.967 718.117 401L815.858 401C820.371 400.969 824.011 397.295 824 392.781L824 295.219C824.011 290.705 820.371 287.031 815.858 287ZM744.454 384.715 727.559 384.715 727.559 330.309 744.485 330.309 744.485 384.715ZM736.006 322.87C730.595 322.87 726.208 318.483 726.208 313.072 726.208 307.66 730.595 303.273 736.006 303.273 741.418 303.273 745.805 307.66 745.805 313.072 745.805 313.074 745.805 313.076 745.805 313.077 745.803 318.488 741.417 322.874 736.006 322.876ZM807.792 384.715 790.894 384.715 790.894 358.25C790.894 351.94 790.766 343.823 782.116 343.823 773.313 343.823 771.962 350.695 771.962 357.788L771.962 384.709 755.067 384.709 755.067 330.309 771.275 330.309 771.275 337.739 771.503 337.739C774.817 332.091 780.965 328.719 787.509 328.961 804.609 328.961 807.789 340.232 807.789 354.896Z" fill="#14191C"/></g></svg>