<svg width="114" height="106" xmlns="http://www.w3.org/2000/svg" xmlns:xlink="http://www.w3.org/1999/xlink" overflow="hidden"><defs><clipPath id="clip0"><rect x="576" y="291" width="114" height="106"/></clipPath></defs><g clip-path="url(#clip0)" transform="translate(-576 -291)"><path d="M113.95 34.3978 113.95 84.1467C113.977 85.1771 113.567 86.1708 112.821 86.8828 112.089 87.6048 111.095 87.9988 110.067 87.9745L69.4856 87.9745 69.4856 54.9329 77.0831 60.7672C77.592 61.1761 78.231 61.3881 78.8834 61.3646 79.5508 61.3801 80.2036 61.1674 80.7339 60.7619ZM69.4856 24.8017 110.067 24.8017C111.009 24.7776 111.927 25.1024 112.644 25.7138 113.357 26.3215 113.783 27.1993 113.82 28.1353L78.8358 56.0432 69.4882 48.6888 69.4882 24.8017ZM63.6407 3.43661 63.6407 109.178 0 98.1707 0 14.7272 63.6513 3.43661 63.6513 3.43661ZM44.4116 56.5084C44.506 51.7201 43.041 47.0308 40.2374 43.1479 37.9276 39.8188 34.1856 37.771 30.1364 37.6203 26.1368 37.8224 22.4556 39.8631 20.165 43.1479 17.3572 47.0265 15.9051 51.7219 16.0331 56.5084 15.9412 61.2674 17.4183 65.9244 20.2363 69.7605 22.5351 73.0415 26.2039 75.0958 30.2025 75.341 34.2768 75.1771 38.0423 73.1248 40.3881 69.7896 43.2044 65.9416 44.681 61.2761 44.5913 56.5084L44.4116 56.5084ZM29.6077 44.7235C31.795 44.8931 33.7395 46.1808 34.7494 48.1284 36.2018 50.6539 36.9171 53.536 36.814 56.4476 36.9254 59.3885 36.2101 62.3018 34.7494 64.8567 33.7379 66.8243 31.7516 68.1008 29.5416 68.2035 27.3435 68.1324 25.3551 66.88 24.3418 64.9281 22.8612 62.4111 22.1439 59.5181 22.2772 56.6009 22.1326 53.7036 22.8511 50.8285 24.3418 48.3399 25.374 46.4131 27.3 45.1288 29.4755 44.9165Z" fill="#14191C" transform="matrix(1.00044 0 0 1 576 287.703)"/></g></svg>