<svg width="15" height="16" xmlns="http://www.w3.org/2000/svg" xmlns:xlink="http://www.w3.org/1999/xlink" overflow="hidden"><defs><clipPath id="clip0"><rect x="958" y="344" width="15" height="16"/></clipPath></defs><g clip-path="url(#clip0)" transform="translate(-958 -344)"><path d="M5.99625 6.88948C6.84649 5.42884 7.71052 4.33235 9.26052 3.44666 9.5232 3.31962 9.79534 3.21316 10.0745 3.12823 7.07124 2.20741 5.83198 0.360949 5.83198 0.360949 5.83198 0.360949 4.59272 2.20741 1.52834 3.09309 1.73544 3.21453 2.11757 3.32523 2.62482 3.58238 3.85702 4.20305 4.85693 5.41456 5.99625 6.88948Z" fill="#888888" transform="matrix(1.00806 0 0 1 959.621 343.639)"/><path d="M7.62357 5.95165C5.49493 2.65883 3.51998 1.43032 0.541424 1.43032 2.47707 4.23771 2.39863 7.66608 2.39863 9.12319 2.39863 11.8411 4.89142 14.0446 7.97008 14.0446 10.0264 14.0445 11.8231 13.0583 12.7914 11.591 11.5236 10.6052 9.75205 9.24447 7.62357 5.95165Z" fill="#888888" transform="matrix(1.00806 0 0 1 957.466 345.955)"/><path d="M9.64665 1.43273C9.64665 1.43273 7.67523 1.35059 6.60377 1.98265 5.13429 2.85432 3.95042 4.13502 3.19673 5.66835 4.22383 7.06154 5.36332 8.36827 6.60377 9.57542 6.98589 9.93974 7.31091 10.2255 7.58587 10.4504 7.72201 10.0206 7.79185 9.57257 7.79298 9.12175 7.78945 7.6648 7.17086 5.04687 9.64665 1.43273Z" fill="#888888" transform="matrix(1.00806 0 0 1 963.264 345.953)"/></g></svg>