<svg width="105" height="106" xmlns="http://www.w3.org/2000/svg" xmlns:xlink="http://www.w3.org/1999/xlink" overflow="hidden"><defs><clipPath id="clip0"><rect x="573" y="374" width="105" height="106"/></clipPath></defs><g clip-path="url(#clip0)" transform="translate(-573 -374)"><path d="M43.7115 67.0793C43.7115 71.6021 40.4303 73.0328 36.3983 73.0328L25.8274 73.0328 25.8274 60.6375 36.6082 60.6375C40.9684 60.6559 43.7115 62.4619 43.7115 67.0793ZM41.9055 47.7907C41.9055 43.6432 38.6951 42.6589 35.133 42.6589L25.851 42.6589 25.851 53.1589 35.8601 53.1589C39.3986 53.1562 41.9055 51.6101 41.9055 47.7881ZM72.912 53.2271C69.0605 52.9836 65.7407 55.9084 65.4972 59.7599 65.4881 59.9027 65.4835 60.0456 65.4832 60.1886L80.0625 60.1886C80.2269 56.5027 77.3722 53.3814 73.6862 53.2169 73.429 53.2055 73.1714 53.2089 72.9146 53.2271ZM105 17.157 105 99.6555C104.999 105.869 99.9623 110.905 93.7493 110.906L11.2507 110.906C5.03773 110.905 0.00144851 105.869-5.90801e-07 99.6555L0 17.157C0.0014491 10.944 5.03773 5.9077 11.2507 5.90625L93.7493 5.90625C99.9623 5.9077 104.999 10.944 105 17.157ZM63.6799 41.7664 81.9131 41.7664 81.9131 37.3354 63.6799 37.3354ZM53.6025 67.6174C54.0495 62.1595 50.6357 57.1267 45.3994 55.524 49.4314 53.6025 51.5393 51.3765 51.5393 46.8615 51.5393 37.9076 44.8586 35.7289 37.149 35.7289L15.9364 35.7289 15.9364 80.7188 37.758 80.7188C45.9375 80.6715 53.6025 76.7576 53.6025 67.6174ZM89.0636 64.1497C89.0636 54.516 83.4146 46.4782 73.2191 46.4782 64.1861 46.2966 56.7162 53.472 56.5345 62.505 56.5263 62.9125 56.5334 63.3202 56.5556 63.7271 56.5556 73.8754 62.9554 80.8369 73.2191 80.8369 80.3027 81.4023 86.7563 76.762 88.4756 69.867L80.5875 69.867C79.3046 72.5882 76.5044 74.2641 73.5 74.109 68.25 74.109 65.5069 71.0378 65.5069 65.835L88.9875 65.835C89.0164 65.2969 89.0636 64.7115 89.0636 64.1497Z" fill="#C2849F" transform="matrix(1 0 0 1.00952 573 368.038)"/></g></svg>