<svg width="109" height="106" xmlns="http://www.w3.org/2000/svg" xmlns:xlink="http://www.w3.org/1999/xlink" overflow="hidden"><defs><clipPath id="clip0"><rect x="237" y="374" width="109" height="106"/></clipPath></defs><g clip-path="url(#clip0)" transform="translate(-237 -374)"><path d="M36.3411 86.7876C36.3411 87.2246 35.8379 87.5821 35.2023 87.5821 34.4793 87.6483 33.9761 87.2961 33.9761 86.7876 33.9761 86.3506 34.4793 85.9931 35.1149 85.9931 35.7717 85.9348 36.3411 86.2844 36.3411 86.7876ZM29.5295 85.8077C29.3759 86.2447 29.8155 86.7505 30.4723 86.8803 30.969 87.1242 31.5696 86.931 31.8309 86.4433 31.9634 86.0063 31.5449 85.5005 30.8881 85.3045 30.3731 85.1197 29.7999 85.332 29.5295 85.8077ZM39.212 85.4342C38.5764 85.5879 38.1394 86.0037 38.2056 86.5069 38.2718 86.9438 38.8412 87.2299 39.498 87.0763 40.1548 86.9226 40.5706 86.5069 40.5044 86.0699 40.4382 85.6329 39.845 85.3654 39.2093 85.4316ZM53.6245 1.48839C24.622 0.876781 0.614945 23.8922 0.00333358 52.8947-0.0110283 53.5758-0.0121405 54.257-2.14172e-06 54.9381-0.188963 78.5747 14.7671 99.6807 37.1304 107.336 39.935 107.84 40.9202 106.11 40.9202 104.688 40.9202 103.329 40.854 95.8371 40.854 91.2395 40.854 91.2395 25.5198 94.5262 22.2994 84.7112 22.2994 84.7112 19.802 78.3366 16.2081 76.6946 16.2081 76.6946 11.1921 73.2517 16.5577 73.3205 20.0982 73.797 23.2196 75.8832 25.014 78.9722 29.8102 87.4285 37.8507 84.9973 40.9838 83.5513 41.2675 80.7584 42.5071 78.1492 44.4929 76.1649 32.2467 74.8063 19.892 73.0319 19.892 51.9587 19.6452 47.1086 21.5343 42.3937 25.0617 39.0557 23.4005 34.1989 23.6035 28.898 25.6311 24.1824 30.2101 22.7576 40.7454 30.0962 40.7454 30.0962 49.7487 27.6135 59.2561 27.6135 68.2595 30.0962 68.2595 30.0962 78.7948 22.7364 83.3738 24.1824 85.4024 28.8978 85.6054 34.199 83.9432 39.0557 87.6013 42.3392 89.6619 47.0435 89.5949 51.9587 89.5949 73.0981 76.6919 74.7851 64.4352 76.1649 67.1066 78.8472 68.4709 82.5638 68.1694 86.3374 68.1694 93.7184 68.1032 102.853 68.1032 104.651 68.1032 106.076 69.1096 107.805 71.8931 107.299 94.1953 99.652 109.035 78.5119 108.65 54.9381 108.65 24.5558 84.0068 1.48839 53.6245 1.48839ZM21.293 77.0415C21.007 77.2613 21.0732 77.7645 21.4466 78.1803 21.7962 78.5299 22.302 78.6835 22.5854 78.4001 22.8715 78.1803 22.8052 77.6771 22.4318 77.2613 22.0796 76.9091 21.5764 76.7555 21.293 77.0415ZM18.928 75.2671C18.7744 75.5531 18.9942 75.9027 19.4312 76.1225 19.7151 76.3435 20.1245 76.2925 20.3455 76.0086 20.3555 75.9957 20.365 75.9825 20.374 75.9689 20.5276 75.6829 20.3078 75.3333 19.8708 75.1135 19.4312 74.9811 19.0684 75.0473 18.9254 75.2671ZM26.0257 83.0666C25.6761 83.3526 25.8059 84.0094 26.3117 84.4252 26.8149 84.9284 27.4505 84.9946 27.7365 84.645 28.0226 84.359 27.8901 83.7022 27.4505 83.2864 26.9659 82.7806 26.3091 82.7144 26.023 83.0639ZM23.5283 79.8462C23.1787 80.066 23.1787 80.6407 23.5283 81.1386 23.8778 81.6365 24.4711 81.8616 24.7545 81.6418 25.1101 81.2587 25.1101 80.6662 24.7545 80.2831 24.4472 79.78 23.8778 79.5601 23.5256 79.8435Z" fill="#C2849F" transform="matrix(1.00322 0 0 1 237 372.541)"/></g></svg>