<svg width="106" height="106" xmlns="http://www.w3.org/2000/svg" xmlns:xlink="http://www.w3.org/1999/xlink" overflow="hidden"><defs><clipPath id="clip0"><rect x="767" y="383" width="106" height="106"/></clipPath></defs><g clip-path="url(#clip0)" transform="translate(-767 -383)"><path d="M820.001 408.828C804.996 408.834 792.836 421.003 792.842 436.008 792.848 451.013 805.017 463.173 820.023 463.167 835.023 463.161 847.18 451 847.182 436 847.206 421.018 835.081 408.853 820.099 408.828 820.067 408.828 820.034 408.828 820.001 408.828ZM820.001 453.664C810.246 453.664 802.338 445.755 802.338 436 802.338 426.245 810.246 418.336 820.001 418.336 829.757 418.336 837.665 426.245 837.665 436 837.646 445.747 829.749 453.645 820.001 453.664ZM854.632 407.718C854.632 411.218 851.794 414.055 848.294 414.055 844.794 414.055 841.957 411.218 841.957 407.718 841.957 404.218 844.794 401.38 848.294 401.38 851.787 401.373 854.624 404.198 854.632 407.691 854.632 407.7 854.632 407.709 854.632 407.718ZM872.626 414.15C872.224 405.672 870.284 398.14 864.066 391.946 857.848 385.751 850.35 383.812 841.862 383.385 833.119 382.89 806.889 382.89 798.146 383.385 789.668 383.788 782.16 385.728 775.942 391.922 769.724 398.116 767.808 405.635 767.371 414.127 766.875 422.87 766.875 449.099 767.371 457.842 767.774 466.32 769.713 473.852 775.931 480.046 782.149 486.241 789.647 488.18 798.136 488.607 806.879 489.102 833.108 489.102 841.851 488.607 850.329 488.204 857.861 486.264 864.056 480.046 870.25 473.828 872.189 466.33 872.616 457.842 873.111 449.099 873.111 422.891 872.616 414.142ZM861.332 467.236C859.514 471.841 855.869 475.486 851.264 477.304 844.288 480.07 827.735 479.424 820.025 479.424 812.315 479.424 795.738 480.038 788.786 477.304 784.181 475.486 780.536 471.841 778.718 467.236 775.952 460.261 776.599 443.707 776.599 435.997 776.599 428.288 775.984 411.71 778.718 404.758 780.536 400.153 784.181 396.508 788.786 394.69 795.762 391.924 812.315 392.571 820.025 392.571 827.735 392.571 844.312 391.956 851.264 394.69 855.869 396.508 859.514 400.153 861.332 404.758 864.098 411.734 863.452 428.288 863.452 435.997 863.452 443.707 864.09 460.274 861.332 467.236Z" fill="#C2849F"/></g></svg>