<svg width="106" height="106" xmlns="http://www.w3.org/2000/svg" xmlns:xlink="http://www.w3.org/1999/xlink" overflow="hidden"><defs><clipPath id="clip0"><rect x="406" y="374" width="106" height="106"/></clipPath></defs><g clip-path="url(#clip0)" transform="translate(-406 -374)"><path d="M504.429 374 413.547 374C409.354 374.031 405.978 377.45 406 381.643L406 472.357C405.978 476.55 409.354 479.969 413.547 480L504.429 480C508.626 479.971 512.01 476.555 512 472.357L512 381.643C512.01 377.445 508.626 374.029 504.429 374ZM438.036 464.858 422.327 464.858 422.327 414.269 438.065 414.269 438.065 464.858ZM430.181 407.353C425.15 407.353 421.071 403.274 421.071 398.242 421.071 393.211 425.15 389.132 430.181 389.132 435.213 389.132 439.292 393.211 439.292 398.242 439.292 398.244 439.292 398.246 439.292 398.247 439.29 403.279 435.212 407.357 430.181 407.358ZM496.929 464.858 481.218 464.858 481.218 440.25C481.218 434.383 481.098 426.836 473.056 426.836 464.87 426.836 463.614 433.225 463.614 439.821L463.614 464.853 447.904 464.853 447.904 414.269 462.975 414.269 462.975 421.178 463.187 421.178C466.268 415.926 471.985 412.791 478.069 413.016 493.969 413.016 496.927 423.497 496.927 437.131Z" fill="#C2849F"/></g></svg>